<?xml version="1.0" encoding="utf-8"?>
<!-- Generator: Adobe Illustrator 24.0.1, SVG Export Plug-In . SVG Version: 6.00 Build 0)  -->
<svg version="1.1" id="Layer_1" xmlns="http://www.w3.org/2000/svg" xmlns:xlink="http://www.w3.org/1999/xlink" x="0px" y="0px"
	 viewBox="0 0 740.29 493.93" style="enable-background:new 0 0 740.29 493.93;" xml:space="preserve">
<style type="text/css">
	.st0{fill:none;stroke:#000000;stroke-miterlimit:10;}
	.st1{fill:none;stroke:#FF0000;stroke-miterlimit:10;}
	.st2{fill:none;stroke:#231F20;stroke-miterlimit:10;}
	.st3{font-family:'Cambria-Bold';}
	.st4{font-size:8.2627px;}
	.st5{fill:#FF0000;}
	.st6{opacity:0;fill:#28343E;}
</style>
<g>
	<path class="st0" d="M370.14,459.56c14.33,0,28.66,0,42.99,0c3.7,0,3.71-0.02,3.71-4.09c0-20.68,0-41.36,0-62.04
		c0-4.56,0.01-4.56,4.1-4.56c8.98,0,17.95,0,26.93,0c1.37,0,2.7,0.11,3.13-1.92c0.09-0.45,1.11-0.9,1.73-0.94
		c1.79-0.13,3.59-0.07,5.38-0.07c7.72,0,15.44-0.01,23.16,0.01c1.32,0,2.75-0.26,3.17,1.82c0.09,0.45,0.89,0.92,1.42,1.02
		c0.96,0.17,1.97,0.08,2.95,0.08c33.5,0,67,0,100.49,0l42.47,0c1.46,0,2.64,1.29,2.64,2.89v64.89c0,1.59,1.18,2.89,2.64,2.89h44.81
		c1.05,0,2.06-0.46,2.81-1.27v0c25.48-27.93,39.79-65.75,39.79-105.18v-89.02v-17.09v-17.09v-89.02
		c0-39.43-14.31-77.25-39.79-105.18v0c-0.74-0.82-1.75-1.27-2.81-1.27h-44.81c-1.46,0-2.64,1.29-2.64,2.89v64.89
		c0,1.59-1.18,2.89-2.64,2.89l-42.47,0c-33.5,0-67,0-100.49,0c-0.99,0-1.99-0.09-2.95,0.08c-0.53,0.1-1.33,0.57-1.42,1.02
		c-0.42,2.09-1.85,1.82-3.17,1.82c-7.72,0.01-15.44,0.01-23.16,0.01c-1.8,0-3.6,0.06-5.38-0.07c-0.62-0.05-1.64-0.49-1.73-0.94
		c-0.43-2.03-1.76-1.92-3.13-1.92c-8.98,0-17.95,0-26.93,0c-4.09,0-4.1-0.01-4.1-4.56c0-20.68,0-41.36,0-62.04
		c0-4.07-0.01-4.09-3.71-4.09c-14.33,0-28.66,0-42.99,0c-14.33,0-28.66,0-42.99,0c-3.7,0-3.71,0.02-3.71,4.09
		c0,20.68,0,41.36,0,62.04c0,4.56-0.01,4.56-4.1,4.56c-8.98,0-17.95,0-26.93,0c-1.37,0-2.7-0.11-3.13,1.92
		c-0.09,0.45-1.11,0.9-1.73,0.94c-1.79,0.13-3.59,0.07-5.38,0.07c-7.72,0-15.44,0.01-23.16-0.01c-1.32,0-2.75,0.26-3.17-1.82
		c-0.09-0.45-0.89-0.92-1.42-1.02c-0.96-0.17-1.97-0.08-2.95-0.08c-33.5,0-67,0-100.49,0l-42.47,0c-1.46,0-2.64-1.29-2.64-2.89
		V37.29c0-1.59-1.18-2.89-2.64-2.89H58.41c-1.05,0-2.06,0.46-2.81,1.27l0,0c-25.48,27.93-39.79,65.75-39.79,105.18v89.02v17.09
		v17.09v89.02c0,39.43,14.31,77.25,39.79,105.18l0,0c0.74,0.82,1.75,1.27,2.81,1.27h44.81c1.46,0,2.64-1.29,2.64-2.89v-64.89
		c0-1.59,1.18-2.89,2.64-2.89l42.47,0c33.5,0,67,0,100.49,0c0.99,0,1.99,0.09,2.95-0.08c0.53-0.1,1.33-0.57,1.42-1.02
		c0.42-2.09,1.85-1.82,3.17-1.82c7.72-0.01,15.44-0.01,23.16-0.01c1.8,0,3.6-0.06,5.38,0.07c0.62,0.05,1.64,0.49,1.73,0.94
		c0.43,2.03,1.76,1.92,3.13,1.92c8.98,0,17.95,0,26.93,0c4.09,0,4.1,0.01,4.1,4.56c0,20.68,0,41.36,0,62.04
		c0,4.07,0.01,4.09,3.71,4.09C341.48,459.56,355.81,459.56,370.14,459.56z"/>
	<path class="st0" d="M369.96,379.94c-5.57,0-11.15-0.02-16.72,0.01c-2.22,0.01-2.51,0.22-2.55,1.73c-0.06,2.06-0.05,4.13-0.01,6.19
		c0.04,1.77,0.27,1.95,2.81,1.96c7.21,0.02,14.42,0.01,21.62,0.01c3.84,0,7.69,0.02,11.53-0.01c2.42-0.02,2.66-0.19,2.71-1.83
		c0.06-2,0.05-3.99,0.01-5.99c-0.03-1.9-0.24-2.05-2.97-2.06C380.92,379.92,375.44,379.93,369.96,379.94z"/>
	<path class="st0" d="M369.96,114c5.39,0,10.78,0.01,16.17-0.01c3.07-0.01,3.2-0.12,3.23-2.35c0.03-1.77,0.03-3.55,0-5.32
		c-0.04-2.08-0.2-2.21-3.12-2.22c-5.01-0.02-10.01-0.01-15.02-0.01c-5.78,0-11.55-0.01-17.33,0.01c-3.07,0.01-3.2,0.12-3.23,2.35
		c-0.02,1.77-0.03,3.55,0,5.32c0.04,2.09,0.2,2.22,3.11,2.23C359.18,114.01,364.57,114,369.96,114z"/>
	<path class="st0" d="M389.58,53.62c3.04,0.01,5.53-2.44,5.52-5.43c-0.01-3.05-2.44-5.48-5.48-5.5c-3.02-0.02-5.52,2.46-5.52,5.45
		C384.11,51.17,386.55,53.61,389.58,53.62z"/>
	<path class="st0" d="M375.49,84.45c0.05-3.16-2.22-5.58-5.28-5.64c-2.92-0.05-5.59,2.5-5.64,5.4c-0.06,2.88,2.55,5.62,5.4,5.68
		C372.96,89.95,375.44,87.51,375.49,84.45z"/>
	<path class="st0" d="M375.48,408.75c0.04-3.01-2.39-5.47-5.41-5.48c-3.05-0.01-5.49,2.42-5.49,5.45c0,3,2.44,5.47,5.47,5.52
		C373.06,414.29,375.44,411.89,375.48,408.75z"/>
	<path class="st0" d="M350.55,53.61c2.88,0.03,5.59-2.59,5.63-5.43c0.05-2.91-2.53-5.47-5.52-5.5c-3.04-0.02-5.52,2.36-5.62,5.39
		C344.95,50.85,347.67,53.58,350.55,53.61z"/>
	<path class="st0" d="M350.6,439.61c-3.06,0-5.54,2.41-5.57,5.4c-0.02,2.81,2.72,5.52,5.58,5.51c2.86-0.01,5.62-2.74,5.57-5.52
		C356.12,442,353.66,439.62,350.6,439.61z"/>
	<path class="st0" d="M389.48,439.61c-3.15-0.24-5.5,3.04-5.38,5.53c0.14,2.9,2.84,5.5,5.66,5.4c2.93-0.1,5.44-2.77,5.35-5.68
		C395.01,441.75,392.66,439.56,389.48,439.61z"/>
	<path class="st1" d="M272.52,173.4c4.77,0,9.53,0.02,14.3-0.01c2.47-0.01,2.68-0.18,2.72-1.97c0.05-2,0.05-3.99,0-5.99
		c-0.04-1.71-0.27-1.92-2.49-1.93c-9.53-0.03-19.06-0.03-28.6,0c-2.18,0.01-2.41,0.22-2.45,1.96c-0.04,1.93-0.04,3.85,0,5.78
		c0.04,1.98,0.21,2.13,2.77,2.15C263.35,173.42,267.93,173.4,272.52,173.4z"/>
	<path class="st1" d="M272.52,323.44c4.77,0,9.53-0.02,14.3,0.01c2.47,0.01,2.68,0.18,2.72,1.97c0.05,2,0.05,3.99,0,5.99
		c-0.04,1.71-0.27,1.92-2.49,1.93c-9.53,0.03-19.06,0.03-28.6,0c-2.18-0.01-2.41-0.22-2.45-1.96c-0.04-1.93-0.04-3.85,0-5.78
		c0.04-1.98,0.21-2.13,2.77-2.15C263.35,323.42,267.93,323.44,272.52,323.44z"/>
	<path class="st1" d="M467.37,173.4c4.77,0,9.53,0.02,14.3-0.01c2.47-0.01,2.68-0.18,2.72-1.97c0.05-2,0.05-3.99,0-5.99
		c-0.04-1.71-0.27-1.92-2.49-1.93c-9.53-0.03-19.06-0.03-28.6,0c-2.18,0.01-2.41,0.22-2.45,1.96c-0.04,1.93-0.04,3.85,0,5.78
		c0.04,1.98,0.21,2.13,2.77,2.15C458.2,173.42,462.79,173.4,467.37,173.4z"/>
	<path class="st1" d="M467.37,323.42c4.77,0,9.53-0.02,14.3,0.01c2.47,0.01,2.68,0.18,2.72,1.97c0.05,2,0.05,3.99,0,5.99
		c-0.04,1.71-0.27,1.92-2.49,1.93c-9.53,0.03-19.06,0.03-28.6,0c-2.18-0.01-2.41-0.22-2.45-1.96c-0.04-1.93-0.04-3.85,0-5.78
		c0.04-1.98,0.21-2.13,2.77-2.15C458.2,323.4,462.79,323.42,467.37,323.42z"/>
	<path class="st0" d="M552.07,332.45c0.05-3.22,0.08-5.81,0.12-8.4c0.05-3.37,0.17-3.53,3.17-3.55c4.17-0.03,8.35,0.01,12.52-0.02
		c3.13-0.02,3.23-0.13,3.25-3.78c0.02-4.4,0.01-8.81,0-13.21c-0.01-4.39-0.01-4.39-3.81-4.4c-4.27-0.01-8.53,0.04-12.8-0.04
		c-1.98-0.03-2.22-0.35-2.3-2.6c-0.07-1.99-0.01-3.98-0.04-5.98c-0.05-3.14-0.2-3.32-3.07-3.34c-4.17-0.03-8.35-0.03-12.52,0
		c-3.04,0.02-3.16,0.17-3.21,3.51c-0.03,2.1-0.03,4.19-0.04,6.29c-0.01,1.42-0.63,2.12-1.88,2.12c-0.65,0-1.3,0.03-1.95,0.03
		c-3.99,0-7.98-0.02-11.96,0.01c-2.96,0.02-3.08,0.18-3.1,3.62c-0.02,4.19-0.01,8.39-0.01,12.58c0,5.5-0.18,5.19,4.51,5.19
		c3.99,0.01,7.98-0.04,11.96,0.03c2.14,0.04,2.37,0.34,2.44,2.77c0.06,1.89,0,3.78,0.02,5.66c0.04,3.33,0.17,3.48,3.22,3.5
		c3.52,0.03,7.05,0.01,10.57,0.01C548.65,332.45,550.11,332.45,552.07,332.45z"/>
	<path class="st0" d="M533.21,194.77c0.07,1.54,0.15,2.66,0.17,3.78c0.03,1.97,0.03,3.94,0.02,5.92c-0.01,1.49,0.52,2.35,1.96,2.35
		c4.92-0.01,9.83,0.05,14.75-0.02c1.75-0.02,1.99-0.4,2.06-2.51c0.07-2.07,0.01-4.15,0.03-6.23c0.04-3.35,0.16-3.52,3.15-3.54
		c4.27-0.03,8.53,0.01,12.8-0.02c2.78-0.02,2.95-0.22,2.97-3.41c0.03-4.67,0.03-9.34,0-14.01c-0.02-3-0.22-3.22-2.84-3.24
		c-4.17-0.04-8.35,0.01-12.52-0.03c-1.07-0.01-2.15-0.21-3.2-0.32c-0.15-0.81-0.31-1.31-0.32-1.82c-0.04-2.28-0.02-4.57-0.05-6.85
		c-0.04-3.04-0.21-3.28-2.78-3.3c-4.45-0.04-8.91-0.05-13.36,0c-2.35,0.03-2.57,0.3-2.64,2.84c-0.05,1.97,0,3.94-0.02,5.92
		c-0.04,3.36-0.16,3.52-3.14,3.55c-4.27,0.03-8.53-0.01-12.8,0.02c-2.79,0.02-2.95,0.22-2.97,3.41c-0.03,4.67-0.03,9.34,0,14.01
		c0.02,2.99,0.22,3.22,2.84,3.24c4.17,0.04,8.35,0,12.52,0.03C530.83,194.53,531.83,194.66,533.21,194.77z"/>
	<path class="st0" d="M425.62,280.82c0,4.14-0.04,8.05,0.02,11.96c0.02,1.45,1.2,1.54,2.3,1.54c5.85,0.01,11.71,0.04,17.56-0.01
		c2.14-0.02,2.39-0.33,2.43-2.62c0.05-2.78,0.05-5.57,0-8.35c-0.04-2.57-0.27-2.82-2.81-2.84c-5.66-0.04-11.33-0.02-16.99,0
		C427.49,280.5,426.83,280.66,425.62,280.82z"/>
	<path class="st0" d="M425.62,199.94c0,4.14-0.04,8.05,0.02,11.96c0.02,1.45,1.2,1.55,2.3,1.55c5.85,0.01,11.71,0.04,17.56-0.01
		c2.14-0.02,2.39-0.33,2.43-2.62c0.05-2.78,0.05-5.57,0-8.35c-0.04-2.57-0.27-2.83-2.8-2.84c-5.66-0.04-11.33-0.02-16.99,0
		C427.49,199.62,426.83,199.78,425.62,199.94z"/>
	<path class="st0" d="M631.98,208.56c2.98,0,5.97,0.06,8.95-0.02c1.89-0.05,2.22-0.36,2.26-2.21c0.08-3.17,0.01-6.35,0.02-9.52
		c0.01-1.46-0.74-2.07-2.14-2.07c-5.87,0.01-11.74-0.04-17.61,0.02c-1.89,0.02-2.22,0.37-2.27,2.2c-0.07,3.08-0.08,6.16,0,9.24
		c0.05,2.03,0.34,2.3,2.42,2.35C626.39,208.61,629.19,208.56,631.98,208.56z"/>
	<path class="st0" d="M631.98,188.56c2.98,0,5.97,0.06,8.95-0.02c1.89-0.05,2.22-0.36,2.26-2.21c0.08-3.17,0.01-6.35,0.02-9.52
		c0.01-1.46-0.74-2.07-2.14-2.07c-5.87,0.01-11.74-0.04-17.61,0.02c-1.89,0.02-2.22,0.37-2.27,2.2c-0.07,3.08-0.08,6.16,0,9.24
		c0.05,2.03,0.34,2.3,2.42,2.35C626.39,188.61,629.19,188.56,631.98,188.56z"/>
	<path class="st0" d="M631.98,158.56c2.98,0,5.97,0.06,8.95-0.02c1.89-0.05,2.22-0.36,2.26-2.21c0.08-3.17,0.01-6.35,0.02-9.52
		c0.01-1.46-0.74-2.07-2.14-2.07c-5.87,0.01-11.74-0.04-17.61,0.02c-1.89,0.02-2.22,0.37-2.27,2.2c-0.07,3.08-0.08,6.16,0,9.24
		c0.05,2.03,0.34,2.3,2.42,2.35C626.39,158.61,629.19,158.56,631.98,158.56z"/>
	<path class="st0" d="M631.98,138.56c2.98,0,5.97,0.06,8.95-0.02c1.89-0.05,2.22-0.36,2.26-2.21c0.08-3.17,0.01-6.35,0.02-9.52
		c0.01-1.46-0.74-2.07-2.14-2.07c-5.87,0.01-11.74-0.04-17.61,0.02c-1.89,0.02-2.22,0.37-2.27,2.2c-0.07,3.08-0.08,6.16,0,9.24
		c0.05,2.03,0.34,2.3,2.42,2.35C626.39,138.61,629.19,138.56,631.98,138.56z"/>
	<path class="st0" d="M632.24,299.42c2.79,0,5.58,0.05,8.37-0.01c2.26-0.05,2.54-0.31,2.58-2.49c0.07-2.98,0.07-5.97,0-8.95
		c-0.05-2.04-0.33-2.35-2.4-2.37c-5.77-0.06-11.55-0.05-17.32,0c-1.9,0.02-2.24,0.36-2.28,2.18c-0.08,3.08-0.08,6.16-0.01,9.24
		c0.05,2.05,0.33,2.32,2.39,2.38C626.47,299.47,629.35,299.42,632.24,299.42z"/>
	<path class="st0" d="M632.24,319.42c2.79,0,5.58,0.05,8.37-0.01c2.26-0.05,2.54-0.31,2.58-2.49c0.07-2.98,0.07-5.97,0-8.95
		c-0.05-2.04-0.33-2.35-2.4-2.37c-5.77-0.06-11.55-0.05-17.32,0c-1.9,0.02-2.24,0.36-2.28,2.18c-0.08,3.08-0.08,6.16-0.01,9.24
		c0.05,2.05,0.33,2.32,2.39,2.38C626.47,319.47,629.35,319.42,632.24,319.42z"/>
	<path class="st0" d="M632.24,349.42c2.79,0,5.58,0.05,8.37-0.01c2.26-0.05,2.54-0.31,2.58-2.49c0.07-2.98,0.07-5.97,0-8.95
		c-0.05-2.04-0.33-2.35-2.4-2.37c-5.77-0.06-11.55-0.05-17.32,0c-1.9,0.02-2.24,0.36-2.28,2.18c-0.08,3.08-0.08,6.16-0.01,9.24
		c0.05,2.05,0.33,2.32,2.39,2.38C626.47,349.47,629.35,349.42,632.24,349.42z"/>
	<path class="st0" d="M632.24,369.42c2.79,0,5.58,0.05,8.37-0.01c2.26-0.05,2.54-0.31,2.58-2.49c0.07-2.98,0.07-5.97,0-8.95
		c-0.05-2.04-0.33-2.35-2.4-2.37c-5.77-0.06-11.55-0.05-17.32,0c-1.9,0.02-2.24,0.36-2.28,2.18c-0.08,3.08-0.08,6.16-0.01,9.24
		c0.05,2.05,0.33,2.32,2.39,2.38C626.47,369.47,629.35,369.42,632.24,369.42z"/>
	<path class="st0" d="M598.35,370.79c0,3.1,2.43,5.58,5.39,5.51c2.99-0.07,5.52-2.64,5.49-5.57c-0.04-2.87-2.71-5.55-5.55-5.56
		C600.78,365.15,598.35,367.72,598.35,370.79z"/>
	<path class="st0" d="M597.35,124.46c0.03,3.13,2.34,5.38,5.5,5.36c2.95-0.02,5.47-2.63,5.41-5.58c-0.06-2.86-2.76-5.44-5.65-5.4
		C599.65,118.86,597.32,121.37,597.35,124.46z"/>
	<path class="st0" d="M648.9,219.37c-14.35-0.51-27.91,11.98-27.77,27.85c0.13,14.56,11.93,27.45,27.57,27.58
		c15.26,0.13,27.91-12.45,27.97-27.53C676.74,231.15,663.12,218.91,648.9,219.37z"/>
	<path class="st0" d="M586.35,257.98c-0.04,3.15,2.19,5.53,5.28,5.64c2.83,0.1,5.53-2.53,5.59-5.46c0.06-2.89-2.48-5.52-5.43-5.63
		C588.83,252.43,586.39,254.86,586.35,257.98z"/>
	<path class="st0" d="M586.35,235.92c-0.33,3.07,2.91,5.38,5.2,5.38c3.05,0,5.81-2.69,5.71-5.63c-0.09-2.92-2.75-5.44-5.65-5.36
		C588.58,230.39,586.31,232.82,586.35,235.92z"/>
	<path class="st0" d="M537.35,257.98c-0.04,3.15,2.19,5.53,5.28,5.64c2.83,0.1,5.53-2.53,5.59-5.46c0.06-2.89-2.48-5.52-5.43-5.63
		C539.83,252.43,537.39,254.86,537.35,257.98z"/>
	<path class="st0" d="M537.35,235.92c-0.33,3.07,2.91,5.38,5.2,5.38c3.05,0,5.81-2.69,5.71-5.63c-0.09-2.92-2.75-5.44-5.65-5.36
		C539.58,230.39,537.31,232.82,537.35,235.92z"/>
	<path class="st0" d="M431.35,257.98c-0.04,3.15,2.19,5.53,5.28,5.64c2.83,0.1,5.53-2.53,5.59-5.46c0.06-2.89-2.48-5.52-5.43-5.63
		C433.83,252.43,431.39,254.86,431.35,257.98z"/>
	<path class="st0" d="M431.35,235.92c-0.33,3.07,2.91,5.38,5.2,5.38c3.05,0,5.81-2.69,5.71-5.63c-0.09-2.92-2.75-5.44-5.65-5.36
		C433.58,230.39,431.31,232.82,431.35,235.92z"/>
	<path class="st0" d="M381.16,140.4c3.15,0.04,5.53-2.19,5.64-5.28c0.1-2.83-2.53-5.53-5.46-5.59c-2.89-0.06-5.52,2.48-5.63,5.43
		C375.6,137.93,378.04,140.36,381.16,140.4z"/>
	<path class="st0" d="M359.1,140.41c3.07,0.33,5.38-2.91,5.38-5.2c0-3.05-2.69-5.81-5.63-5.71c-2.92,0.09-5.44,2.75-5.36,5.65
		C353.57,138.18,355.99,140.45,359.1,140.41z"/>
	<path class="st0" d="M391.16,205.4c3.15,0.04,5.53-2.19,5.64-5.28c0.1-2.83-2.53-5.53-5.46-5.59c-2.89-0.06-5.52,2.48-5.63,5.43
		C385.6,202.93,388.04,205.36,391.16,205.4z"/>
	<path class="st0" d="M349.1,205.41c3.07,0.33,5.38-2.91,5.38-5.2c0-3.05-2.69-5.81-5.63-5.71c-2.92,0.09-5.44,2.75-5.36,5.65
		C343.57,203.18,345.99,205.45,349.1,205.41z"/>
	<path class="st0" d="M391.16,299.4c3.15,0.04,5.53-2.19,5.64-5.28c0.1-2.83-2.53-5.53-5.46-5.59c-2.89-0.06-5.52,2.48-5.63,5.43
		C385.6,296.93,388.04,299.36,391.16,299.4z"/>
	<path class="st0" d="M349.1,299.41c3.07,0.33,5.38-2.91,5.38-5.2c0-3.05-2.69-5.81-5.63-5.71c-2.92,0.09-5.44,2.75-5.36,5.65
		C343.57,297.18,345.99,299.45,349.1,299.41z"/>
	<path class="st0" d="M381.16,364.4c3.15,0.04,5.53-2.19,5.64-5.28c0.1-2.83-2.53-5.53-5.46-5.59c-2.89-0.06-5.52,2.48-5.63,5.43
		C375.6,361.93,378.04,364.36,381.16,364.4z"/>
	<path class="st0" d="M359.1,364.41c3.07,0.33,5.38-2.91,5.38-5.2c0-3.05-2.69-5.81-5.63-5.71c-2.92,0.09-5.44,2.75-5.36,5.65
		C353.57,362.18,355.99,364.45,359.1,364.41z"/>
	<path class="st0" d="M708.98,233.08c0.02-2.26,2.09-4.22,4.33-4.11c1.95,0.09,3.93,2.05,3.98,3.92c0.06,2.22-2.01,4.31-4.22,4.26
		C710.92,237.1,708.96,235.15,708.98,233.08z"/>
	<path class="st0" d="M713.15,264.97c-2.12,0.02-4.1-1.87-4.16-3.97c-0.06-2.09,1.81-4.04,3.96-4.12c2.39-0.09,4.3,1.71,4.3,4.04
		C717.24,263.01,715.28,264.95,713.15,264.97z"/>
	<path class="st0" d="M693.85,332.01h3.79c2.09,0,3.78-1.69,3.78-3.78V165.7c0-2.09-1.69-3.78-3.78-3.78h-3.79
		c-2.09,0-3.78,1.69-3.78,3.78v162.53C690.07,330.31,691.76,332.01,693.85,332.01z"/>
	<path class="st0" d="M685.65,91.32c-0.8-2.11,0.4-4.69,2.53-5.41c1.84-0.63,4.4,0.47,5.14,2.2c0.87,2.05-0.3,4.74-2.38,5.51
		C688.93,94.35,686.39,93.25,685.65,91.32z"/>
	<path class="st0" d="M701.18,119.49c-1.97,0.79-4.5-0.24-5.33-2.17c-0.82-1.92,0.22-4.42,2.19-5.28c2.19-0.95,4.63,0.02,5.48,2.19
		C704.28,116.17,703.15,118.69,701.18,119.49z"/>
	<path class="st0" d="M691.43,150.82l3.52-1.38c1.94-0.76,2.9-2.95,2.14-4.89L668.81,72.4c-0.76-1.94-2.95-2.9-4.89-2.14l-3.52,1.38
		c-1.94,0.76-2.9,2.95-2.14,4.89l28.28,72.14C687.3,150.62,689.49,151.58,691.43,150.82z"/>
	<path class="st0" d="M685.65,402.61c-0.8,2.11,0.4,4.69,2.53,5.41c1.84,0.63,4.4-0.47,5.14-2.2c0.87-2.05-0.3-4.74-2.38-5.51
		C688.93,399.58,686.39,400.68,685.65,402.61z"/>
	<path class="st0" d="M701.18,374.45c-1.97-0.79-4.5,0.24-5.33,2.17c-0.82,1.92,0.22,4.42,2.19,5.28c2.19,0.95,4.63-0.02,5.48-2.19
		C704.28,377.77,703.15,375.24,701.18,374.45z"/>
	<path class="st0" d="M692.43,343.12l3.52,1.38c1.94,0.76,2.9,2.95,2.14,4.89l-28.28,72.14c-0.76,1.94-2.95,2.9-4.89,2.14
		l-3.52-1.38c-1.94-0.76-2.9-2.95-2.14-4.89l28.28-72.14C688.3,343.31,690.49,342.36,692.43,343.12z"/>
	<path class="st0" d="M652.41,49.62c0,3.1,2.43,5.58,5.39,5.51c2.99-0.07,5.52-2.64,5.49-5.57c-0.04-2.87-2.71-5.55-5.55-5.56
		C654.84,43.99,652.41,46.55,652.41,49.62z"/>
	<path class="st0" d="M652.41,444.42c0,3.1,2.43,5.58,5.39,5.51c2.99-0.07,5.52-2.64,5.49-5.57c-0.04-2.87-2.71-5.55-5.55-5.56
		C654.84,438.78,652.41,441.35,652.41,444.42z"/>
	<path class="st0" d="M188.22,332.45c-0.05-3.22-0.08-5.81-0.12-8.4c-0.05-3.37-0.17-3.53-3.17-3.55
		c-4.17-0.03-8.35,0.01-12.52-0.02c-3.13-0.02-3.23-0.13-3.25-3.78c-0.02-4.4-0.01-8.81,0-13.21c0.01-4.39,0.01-4.39,3.81-4.4
		c4.27-0.01,8.53,0.04,12.8-0.04c1.98-0.03,2.22-0.35,2.3-2.6c0.07-1.99,0.01-3.98,0.04-5.98c0.05-3.14,0.2-3.32,3.07-3.34
		c4.17-0.03,8.35-0.03,12.52,0c3.04,0.02,3.16,0.17,3.21,3.51c0.03,2.1,0.03,4.19,0.04,6.29c0.01,1.42,0.63,2.12,1.88,2.12
		c0.65,0,1.3,0.03,1.95,0.03c3.99,0,7.98-0.02,11.96,0.01c2.96,0.02,3.08,0.18,3.1,3.62c0.02,4.19,0,8.39,0.01,12.58
		c0,5.5,0.18,5.19-4.51,5.19c-3.99,0.01-7.98-0.04-11.96,0.03c-2.14,0.04-2.37,0.34-2.44,2.77c-0.06,1.89,0,3.78-0.02,5.66
		c-0.04,3.33-0.17,3.48-3.22,3.5c-3.52,0.03-7.05,0.01-10.57,0.01C191.64,332.45,190.17,332.45,188.22,332.45z"/>
	<path class="st0" d="M207.08,194.77c-0.07,1.54-0.15,2.66-0.17,3.78c-0.03,1.97-0.03,3.94-0.02,5.92c0.01,1.49-0.52,2.35-1.96,2.35
		c-4.92-0.01-9.83,0.05-14.75-0.02c-1.75-0.02-1.99-0.4-2.06-2.51c-0.07-2.07-0.01-4.15-0.03-6.23c-0.04-3.35-0.16-3.52-3.15-3.54
		c-4.27-0.03-8.53,0.01-12.8-0.02c-2.78-0.02-2.95-0.22-2.97-3.41c-0.03-4.67-0.03-9.34,0-14.01c0.02-3,0.22-3.22,2.84-3.24
		c4.17-0.04,8.35,0.01,12.52-0.03c1.07-0.01,2.15-0.21,3.2-0.32c0.15-0.81,0.31-1.31,0.32-1.82c0.04-2.28,0.02-4.57,0.05-6.85
		c0.04-3.04,0.21-3.28,2.78-3.3c4.45-0.04,8.91-0.05,13.36,0c2.35,0.03,2.57,0.3,2.64,2.84c0.05,1.97,0,3.94,0.02,5.92
		c0.04,3.36,0.16,3.52,3.14,3.55c4.27,0.03,8.53-0.01,12.8,0.02c2.79,0.02,2.95,0.22,2.97,3.41c0.03,4.67,0.03,9.34,0,14.01
		c-0.02,2.99-0.22,3.22-2.84,3.24c-4.17,0.04-8.35,0-12.52,0.03C209.45,194.53,208.46,194.66,207.08,194.77z"/>
	<path class="st0" d="M314.67,280.82c0,4.14,0.04,8.05-0.02,11.96c-0.02,1.45-1.2,1.54-2.3,1.54c-5.85,0.01-11.71,0.04-17.56-0.01
		c-2.14-0.02-2.39-0.33-2.43-2.62c-0.05-2.78-0.05-5.57,0-8.35c0.04-2.57,0.27-2.82,2.81-2.84c5.66-0.04,11.33-0.02,16.99,0
		C312.8,280.5,313.46,280.66,314.67,280.82z"/>
	<path class="st0" d="M314.67,199.94c0,4.14,0.04,8.05-0.02,11.96c-0.02,1.45-1.2,1.55-2.3,1.55c-5.86,0.01-11.71,0.04-17.56-0.01
		c-2.14-0.02-2.39-0.33-2.43-2.62c-0.05-2.78-0.05-5.57,0-8.35c0.04-2.57,0.27-2.83,2.8-2.84c5.66-0.04,11.33-0.02,16.99,0
		C312.8,199.62,313.45,199.78,314.67,199.94z"/>
	<path class="st0" d="M108.31,208.56c-2.98,0-5.97,0.06-8.95-0.02c-1.89-0.05-2.22-0.36-2.26-2.21c-0.08-3.17-0.01-6.35-0.02-9.52
		c-0.01-1.46,0.74-2.07,2.14-2.07c5.87,0.01,11.74-0.04,17.61,0.02c1.89,0.02,2.22,0.37,2.27,2.2c0.07,3.08,0.08,6.16,0,9.24
		c-0.05,2.03-0.34,2.3-2.42,2.35C113.89,208.61,111.1,208.56,108.31,208.56z"/>
	<path class="st0" d="M108.31,188.56c-2.98,0-5.97,0.06-8.95-0.02c-1.89-0.05-2.22-0.36-2.26-2.21c-0.08-3.17-0.01-6.35-0.02-9.52
		c-0.01-1.46,0.74-2.07,2.14-2.07c5.87,0.01,11.74-0.04,17.61,0.02c1.89,0.02,2.22,0.37,2.27,2.2c0.07,3.08,0.08,6.16,0,9.24
		c-0.05,2.03-0.34,2.3-2.42,2.35C113.89,188.61,111.1,188.56,108.31,188.56z"/>
	<path class="st0" d="M108.31,158.56c-2.98,0-5.97,0.06-8.95-0.02c-1.89-0.05-2.22-0.36-2.26-2.21c-0.08-3.17-0.01-6.35-0.02-9.52
		c-0.01-1.46,0.74-2.07,2.14-2.07c5.87,0.01,11.74-0.04,17.61,0.02c1.89,0.02,2.22,0.37,2.27,2.2c0.07,3.08,0.08,6.16,0,9.24
		c-0.05,2.03-0.34,2.3-2.42,2.35C113.89,158.61,111.1,158.56,108.31,158.56z"/>
	<path class="st0" d="M108.31,138.56c-2.98,0-5.97,0.06-8.95-0.02c-1.89-0.05-2.22-0.36-2.26-2.21c-0.08-3.17-0.01-6.35-0.02-9.52
		c-0.01-1.46,0.74-2.07,2.14-2.07c5.87,0.01,11.74-0.04,17.61,0.02c1.89,0.02,2.22,0.37,2.27,2.2c0.07,3.08,0.08,6.16,0,9.24
		c-0.05,2.03-0.34,2.3-2.42,2.35C113.89,138.61,111.1,138.56,108.31,138.56z"/>
	<path class="st0" d="M108.05,299.42c-2.79,0-5.58,0.05-8.37-0.01c-2.26-0.05-2.54-0.31-2.58-2.49c-0.07-2.98-0.07-5.97,0-8.95
		c0.05-2.04,0.33-2.35,2.4-2.37c5.77-0.06,11.55-0.05,17.32,0c1.9,0.02,2.24,0.36,2.28,2.18c0.08,3.08,0.08,6.16,0.01,9.24
		c-0.05,2.05-0.33,2.32-2.39,2.38C113.82,299.47,110.93,299.42,108.05,299.42z"/>
	<path class="st0" d="M108.05,319.42c-2.79,0-5.58,0.05-8.37-0.01c-2.26-0.05-2.54-0.31-2.58-2.49c-0.07-2.98-0.07-5.97,0-8.95
		c0.05-2.04,0.33-2.35,2.4-2.37c5.77-0.06,11.55-0.05,17.32,0c1.9,0.02,2.24,0.36,2.28,2.18c0.08,3.08,0.08,6.16,0.01,9.24
		c-0.05,2.05-0.33,2.32-2.39,2.38C113.82,319.47,110.93,319.42,108.05,319.42z"/>
	<path class="st0" d="M108.05,349.42c-2.79,0-5.58,0.05-8.37-0.01c-2.26-0.05-2.54-0.31-2.58-2.49c-0.07-2.98-0.07-5.97,0-8.95
		c0.05-2.04,0.33-2.35,2.4-2.37c5.77-0.06,11.55-0.05,17.32,0c1.9,0.02,2.24,0.36,2.28,2.18c0.08,3.08,0.08,6.16,0.01,9.24
		c-0.05,2.05-0.33,2.32-2.39,2.38C113.82,349.47,110.93,349.42,108.05,349.42z"/>
	<path class="st0" d="M108.05,369.42c-2.79,0-5.58,0.05-8.37-0.01c-2.26-0.05-2.54-0.31-2.58-2.49c-0.07-2.98-0.07-5.97,0-8.95
		c0.05-2.04,0.33-2.35,2.4-2.37c5.77-0.06,11.55-0.05,17.32,0c1.9,0.02,2.24,0.36,2.28,2.18c0.08,3.08,0.08,6.16,0.01,9.24
		c-0.05,2.05-0.33,2.32-2.39,2.38C113.82,369.47,110.93,369.42,108.05,369.42z"/>
	<path class="st0" d="M141.94,370.79c0,3.1-2.43,5.58-5.39,5.51c-2.99-0.07-5.52-2.64-5.49-5.57c0.04-2.87,2.71-5.55,5.55-5.56
		C139.5,365.15,141.94,367.72,141.94,370.79z"/>
	<path class="st0" d="M142.94,124.46c-0.03,3.13-2.34,5.38-5.5,5.36c-2.95-0.02-5.47-2.63-5.41-5.58c0.06-2.86,2.76-5.44,5.65-5.4
		C140.63,118.86,142.97,121.37,142.94,124.46z"/>
	<path class="st0" d="M91.39,219.37c14.35-0.51,27.91,11.98,27.77,27.85c-0.13,14.56-11.93,27.45-27.57,27.58
		c-15.26,0.13-27.91-12.45-27.97-27.53C63.54,231.15,77.16,218.91,91.39,219.37z"/>
	<path class="st0" d="M153.93,257.98c0.04,3.15-2.19,5.53-5.28,5.64c-2.83,0.1-5.53-2.53-5.59-5.46c-0.06-2.89,2.48-5.52,5.43-5.63
		C151.46,252.43,153.89,254.86,153.93,257.98z"/>
	<path class="st0" d="M153.94,235.92c0.33,3.07-2.91,5.38-5.2,5.38c-3.05,0-5.81-2.69-5.71-5.63c0.09-2.92,2.75-5.44,5.65-5.36
		C151.71,230.39,153.98,232.82,153.94,235.92z"/>
	<path class="st0" d="M202.93,257.98c0.04,3.15-2.19,5.53-5.28,5.64c-2.83,0.1-5.53-2.53-5.59-5.46c-0.06-2.89,2.48-5.52,5.43-5.63
		C200.46,252.43,202.89,254.86,202.93,257.98z"/>
	<path class="st0" d="M202.94,235.92c0.33,3.07-2.91,5.38-5.2,5.38c-3.05,0-5.81-2.69-5.71-5.63c0.09-2.92,2.75-5.44,5.65-5.36
		C200.71,230.39,202.98,232.82,202.94,235.92z"/>
	<path class="st0" d="M308.93,257.98c0.04,3.15-2.19,5.53-5.28,5.64c-2.83,0.1-5.53-2.53-5.59-5.46c-0.06-2.89,2.48-5.52,5.43-5.63
		C306.46,252.43,308.89,254.86,308.93,257.98z"/>
	<path class="st0" d="M308.94,235.92c0.33,3.07-2.91,5.38-5.2,5.38c-3.05,0-5.81-2.69-5.71-5.63c0.09-2.92,2.75-5.44,5.65-5.36
		C306.71,230.39,308.98,232.82,308.94,235.92z"/>
	<path class="st0" d="M31.31,233.08c-0.02-2.26-2.09-4.22-4.33-4.11c-1.95,0.09-3.93,2.05-3.98,3.92c-0.06,2.22,2.01,4.31,4.22,4.26
		C29.37,237.1,31.33,235.15,31.31,233.08z"/>
	<path class="st0" d="M27.14,264.97c2.12,0.02,4.1-1.87,4.16-3.97c0.06-2.09-1.81-4.04-3.96-4.12c-2.39-0.09-4.3,1.71-4.3,4.04
		C23.04,263.01,25.01,264.95,27.14,264.97z"/>
	<path class="st0" d="M46.44,332.01h-3.79c-2.09,0-3.78-1.69-3.78-3.78V165.7c0-2.09,1.69-3.78,3.78-3.78h3.79
		c2.09,0,3.78,1.69,3.78,3.78v162.53C50.22,330.31,48.53,332.01,46.44,332.01z"/>
	<path class="st0" d="M54.63,91.32c0.8-2.11-0.4-4.69-2.53-5.41c-1.84-0.63-4.4,0.47-5.14,2.2c-0.87,2.05,0.3,4.74,2.38,5.51
		C51.36,94.35,53.9,93.25,54.63,91.32z"/>
	<path class="st0" d="M39.11,119.49c1.97,0.79,4.5-0.24,5.33-2.17c0.82-1.92-0.22-4.42-2.19-5.28c-2.19-0.95-4.63,0.02-5.48,2.19
		C36.01,116.17,37.13,118.69,39.11,119.49z"/>
	<path class="st0" d="M48.85,150.82l-3.52-1.38c-1.94-0.76-2.9-2.95-2.14-4.89L71.48,72.4c0.76-1.94,2.95-2.9,4.89-2.14l3.52,1.38
		c1.94,0.76,2.9,2.95,2.14,4.89l-28.28,72.14C52.99,150.62,50.8,151.58,48.85,150.82z"/>
	<path class="st0" d="M54.63,402.61c0.8,2.11-0.4,4.69-2.53,5.41c-1.84,0.63-4.4-0.47-5.14-2.2c-0.87-2.05,0.3-4.74,2.38-5.51
		C51.36,399.58,53.9,400.68,54.63,402.61z"/>
	<path class="st0" d="M39.11,374.45c1.97-0.79,4.5,0.24,5.33,2.17c0.82,1.92-0.22,4.42-2.19,5.28c-2.19,0.95-4.63-0.02-5.48-2.19
		C36.01,377.77,37.13,375.24,39.11,374.45z"/>
	<path class="st0" d="M47.85,343.12l-3.52,1.38c-1.94,0.76-2.9,2.95-2.14,4.89l28.28,72.14c0.76,1.94,2.95,2.9,4.89,2.14l3.52-1.38
		c1.94-0.76,2.9-2.95,2.14-4.89l-28.28-72.14C51.99,343.31,49.8,342.36,47.85,343.12z"/>
	<path class="st0" d="M87.88,49.62c0,3.1-2.43,5.58-5.39,5.51c-2.99-0.07-5.52-2.64-5.49-5.57c0.04-2.87,2.71-5.55,5.55-5.56
		C85.45,43.99,87.88,46.55,87.88,49.62z"/>
	<path class="st0" d="M87.88,444.42c0,3.1-2.43,5.58-5.39,5.51c-2.99-0.07-5.52-2.64-5.49-5.57c0.04-2.87,2.71-5.55,5.55-5.56
		C85.45,438.78,87.88,441.35,87.88,444.42z"/>
	<polygon class="st1" points="310.94,406.77 310.74,406.24 310.55,405.71 310.25,405.27 309.86,404.74 309.46,404.38 308.97,403.94 
		308.48,403.68 307.89,403.41 307.3,403.15 306.71,402.97 306.12,402.88 305.53,402.88 234.4,402.88 234.4,397.85 221.8,397.85 
		221.31,397.94 220.82,398.03 220.43,398.2 220.03,398.47 219.64,398.73 219.44,399.09 219.15,399.53 219.05,399.97 219.05,400.41 
		219.05,435.46 219.05,435.81 219.15,436.25 219.44,436.7 219.64,437.05 220.03,437.31 220.43,437.58 220.82,437.76 221.31,437.84 
		221.8,437.93 234.4,437.93 234.4,432.9 305.53,432.9 306.12,432.9 306.71,432.81 307.3,432.64 307.89,432.46 308.48,432.11 
		308.97,431.84 309.46,431.49 309.86,431.05 310.25,430.6 310.55,430.07 310.74,429.55 310.94,429.02 311.04,428.49 311.04,427.87 
		311.04,407.92 311.04,407.3 	"/>
	<g>
		<polygon class="st2" points="305.55,417.36 305.55,418.43 305.46,418.96 305.28,419.49 305.01,419.93 304.75,420.38 
			304.48,420.82 304.03,421.18 303.67,421.53 303.22,421.8 302.68,421.97 302.15,422.15 301.61,422.24 301.07,422.33 287.07,422.33 
			286.62,422.24 286.09,422.15 285.55,421.97 285.01,421.8 284.56,421.53 284.2,421.18 283.75,420.82 283.49,420.38 283.22,419.93 
			282.95,419.49 282.77,418.96 282.68,418.43 282.68,417.36 282.77,416.83 282.95,416.38 283.22,415.85 283.49,415.41 
			283.75,414.97 284.2,414.61 284.56,414.26 285.01,413.99 285.55,413.81 286.09,413.63 286.62,413.55 287.07,413.46 301.07,413.46 
			301.61,413.55 302.15,413.63 302.68,413.81 303.22,413.99 303.67,414.26 304.03,414.61 304.48,414.97 304.75,415.41 
			305.01,415.85 305.28,416.38 305.46,416.83 		"/>
	</g>
	<g>
		<polygon class="st2" points="265.55,417.36 265.55,418.43 265.46,418.96 265.28,419.49 265.01,419.93 264.75,420.38 
			264.48,420.82 264.03,421.18 263.67,421.53 263.22,421.8 262.68,421.97 262.15,422.15 261.61,422.24 261.07,422.33 247.07,422.33 
			246.62,422.24 246.09,422.15 245.55,421.97 245.01,421.8 244.56,421.53 244.2,421.18 243.75,420.82 243.49,420.38 243.22,419.93 
			242.95,419.49 242.77,418.96 242.68,418.43 242.68,417.36 242.77,416.83 242.95,416.38 243.22,415.85 243.49,415.41 
			243.75,414.97 244.2,414.61 244.56,414.26 245.01,413.99 245.55,413.81 246.09,413.63 246.62,413.55 247.07,413.46 261.07,413.46 
			261.61,413.55 262.15,413.63 262.68,413.81 263.22,413.99 263.67,414.26 264.03,414.61 264.48,414.97 264.75,415.41 
			265.01,415.85 265.28,416.38 265.46,416.83 		"/>
	</g>
	<polygon class="st1" points="117.15,429.02 117.35,429.55 117.54,430.07 117.84,430.52 118.23,431.05 118.62,431.4 119.12,431.84 
		119.61,432.11 120.2,432.37 120.79,432.64 121.38,432.81 121.97,432.9 122.56,432.9 193.69,432.9 193.69,437.93 206.28,437.93 
		206.78,437.84 207.27,437.76 207.66,437.58 208.05,437.31 208.45,437.05 208.64,436.7 208.94,436.25 209.04,435.81 209.04,435.37 
		209.04,400.32 209.04,399.97 208.94,399.53 208.64,399.09 208.45,398.73 208.05,398.47 207.66,398.2 207.27,398.03 206.78,397.94 
		206.28,397.85 193.69,397.85 193.69,402.88 122.56,402.88 121.97,402.88 121.38,402.97 120.79,403.15 120.2,403.32 119.61,403.68 
		119.12,403.94 118.62,404.3 118.23,404.74 117.84,405.18 117.54,405.71 117.35,406.24 117.15,406.77 117.05,407.3 117.05,407.92 
		117.05,427.87 117.05,428.49 	"/>
	<g>
		<polygon class="st2" points="122.54,418.42 122.54,417.35 122.63,416.82 122.81,416.29 123.08,415.85 123.34,415.4 123.61,414.96 
			124.06,414.6 124.42,414.25 124.87,413.98 125.41,413.81 125.94,413.63 126.48,413.54 127.02,413.45 141.02,413.45 141.47,413.54 
			142,413.63 142.54,413.81 143.08,413.98 143.53,414.25 143.89,414.6 144.34,414.96 144.6,415.4 144.87,415.85 145.14,416.29 
			145.32,416.82 145.41,417.35 145.41,418.42 145.32,418.95 145.14,419.4 144.87,419.93 144.6,420.37 144.34,420.81 143.89,421.17 
			143.53,421.52 143.08,421.79 142.54,421.97 142,422.15 141.47,422.23 141.02,422.32 127.02,422.32 126.48,422.23 125.94,422.15 
			125.41,421.97 124.87,421.79 124.42,421.52 124.06,421.17 123.61,420.81 123.34,420.37 123.08,419.93 122.81,419.4 122.63,418.95 
					"/>
	</g>
	<g>
		<polygon class="st2" points="162.54,418.42 162.54,417.35 162.63,416.82 162.81,416.29 163.08,415.85 163.34,415.4 163.61,414.96 
			164.06,414.6 164.42,414.25 164.87,413.98 165.41,413.81 165.94,413.63 166.48,413.54 167.02,413.45 181.02,413.45 181.47,413.54 
			182,413.63 182.54,413.81 183.08,413.98 183.53,414.25 183.89,414.6 184.34,414.96 184.6,415.4 184.87,415.85 185.14,416.29 
			185.32,416.82 185.41,417.35 185.41,418.42 185.32,418.95 185.14,419.4 184.87,419.93 184.6,420.37 184.34,420.81 183.89,421.17 
			183.53,421.52 183.08,421.79 182.54,421.97 182,422.15 181.47,422.23 181.02,422.32 167.02,422.32 166.48,422.23 165.94,422.15 
			165.41,421.97 164.87,421.79 164.42,421.52 164.06,421.17 163.61,420.81 163.34,420.37 163.08,419.93 162.81,419.4 162.63,418.95 
					"/>
	</g>
	<polygon class="st1" points="310.94,64.92 310.74,64.39 310.55,63.86 310.25,63.42 309.86,62.89 309.46,62.53 308.97,62.09 
		308.48,61.83 307.89,61.56 307.3,61.3 306.71,61.12 306.12,61.03 305.53,61.03 234.4,61.03 234.4,56 221.8,56 221.31,56.09 
		220.82,56.18 220.43,56.35 220.03,56.62 219.64,56.88 219.44,57.24 219.15,57.68 219.05,58.12 219.05,58.56 219.05,93.61 
		219.05,93.96 219.15,94.4 219.44,94.85 219.64,95.2 220.03,95.46 220.43,95.73 220.82,95.91 221.31,95.99 221.8,96.08 234.4,96.08 
		234.4,91.05 305.53,91.05 306.12,91.05 306.71,90.96 307.3,90.78 307.89,90.61 308.48,90.26 308.97,89.99 309.46,89.64 
		309.86,89.2 310.25,88.75 310.55,88.22 310.74,87.69 310.94,87.17 311.04,86.64 311.04,86.02 311.04,66.06 311.04,65.45 	"/>
	<g>
		<polygon class="st2" points="305.55,75.51 305.55,76.58 305.46,77.11 305.28,77.64 305.01,78.08 304.75,78.53 304.48,78.97 
			304.03,79.33 303.67,79.68 303.22,79.95 302.68,80.12 302.15,80.3 301.61,80.39 301.07,80.48 287.07,80.48 286.62,80.39 
			286.09,80.3 285.55,80.12 285.01,79.95 284.56,79.68 284.2,79.33 283.75,78.97 283.49,78.53 283.22,78.08 282.95,77.64 
			282.77,77.11 282.68,76.58 282.68,75.51 282.77,74.98 282.95,74.53 283.22,74 283.49,73.56 283.75,73.12 284.2,72.76 
			284.56,72.41 285.01,72.14 285.55,71.96 286.09,71.78 286.62,71.7 287.07,71.61 301.07,71.61 301.61,71.7 302.15,71.78 
			302.68,71.96 303.22,72.14 303.67,72.41 304.03,72.76 304.48,73.12 304.75,73.56 305.01,74 305.28,74.53 305.46,74.98 		"/>
	</g>
	<g>
		<polygon class="st2" points="265.55,75.51 265.55,76.58 265.46,77.11 265.28,77.64 265.01,78.08 264.75,78.53 264.48,78.97 
			264.03,79.33 263.67,79.68 263.22,79.95 262.68,80.12 262.15,80.3 261.61,80.39 261.07,80.48 247.07,80.48 246.62,80.39 
			246.09,80.3 245.55,80.12 245.01,79.95 244.56,79.68 244.2,79.33 243.75,78.97 243.49,78.53 243.22,78.08 242.95,77.64 
			242.77,77.11 242.68,76.58 242.68,75.51 242.77,74.98 242.95,74.53 243.22,74 243.49,73.56 243.75,73.12 244.2,72.76 
			244.56,72.41 245.01,72.14 245.55,71.96 246.09,71.78 246.62,71.7 247.07,71.61 261.07,71.61 261.61,71.7 262.15,71.78 
			262.68,71.96 263.22,72.14 263.67,72.41 264.03,72.76 264.48,73.12 264.75,73.56 265.01,74 265.28,74.53 265.46,74.98 		"/>
	</g>
	<polygon class="st1" points="117.15,87.16 117.35,87.69 117.54,88.22 117.84,88.67 118.23,89.2 118.62,89.55 119.12,89.99 
		119.61,90.25 120.2,90.52 120.79,90.78 121.38,90.96 121.97,91.05 122.56,91.05 193.69,91.05 193.69,96.08 206.28,96.08 
		206.78,95.99 207.27,95.91 207.66,95.73 208.05,95.46 208.45,95.2 208.64,94.85 208.94,94.4 209.04,93.96 209.04,93.52 
		209.04,58.47 209.04,58.12 208.94,57.68 208.64,57.24 208.45,56.88 208.05,56.62 207.66,56.35 207.27,56.18 206.78,56.09 
		206.28,56 193.69,56 193.69,61.03 122.56,61.03 121.97,61.03 121.38,61.12 120.79,61.3 120.2,61.47 119.61,61.83 119.12,62.09 
		118.62,62.44 118.23,62.89 117.84,63.33 117.54,63.86 117.35,64.39 117.15,64.92 117.05,65.45 117.05,66.06 117.05,86.02 
		117.05,86.64 	"/>
	<g>
		<polygon class="st2" points="122.54,76.57 122.54,75.5 122.63,74.97 122.81,74.44 123.08,74 123.34,73.55 123.61,73.11 
			124.06,72.75 124.42,72.4 124.87,72.13 125.41,71.96 125.94,71.78 126.48,71.69 127.02,71.6 141.02,71.6 141.47,71.69 142,71.78 
			142.54,71.96 143.08,72.13 143.53,72.4 143.89,72.75 144.34,73.11 144.6,73.55 144.87,74 145.14,74.44 145.32,74.97 145.41,75.5 
			145.41,76.57 145.32,77.1 145.14,77.55 144.87,78.08 144.6,78.52 144.34,78.96 143.89,79.32 143.53,79.67 143.08,79.94 
			142.54,80.12 142,80.3 141.47,80.38 141.02,80.47 127.02,80.47 126.48,80.38 125.94,80.3 125.41,80.12 124.87,79.94 124.42,79.67 
			124.06,79.32 123.61,78.96 123.34,78.52 123.08,78.08 122.81,77.55 122.63,77.1 		"/>
	</g>
	<g>
		<polygon class="st2" points="162.54,76.57 162.54,75.5 162.63,74.97 162.81,74.44 163.08,74 163.34,73.55 163.61,73.11 
			164.06,72.75 164.42,72.4 164.87,72.13 165.41,71.96 165.94,71.78 166.48,71.69 167.02,71.6 181.02,71.6 181.47,71.69 182,71.78 
			182.54,71.96 183.08,72.13 183.53,72.4 183.89,72.75 184.34,73.11 184.6,73.55 184.87,74 185.14,74.44 185.32,74.97 185.41,75.5 
			185.41,76.57 185.32,77.1 185.14,77.55 184.87,78.08 184.6,78.52 184.34,78.96 183.89,79.32 183.53,79.67 183.08,79.94 
			182.54,80.12 182,80.3 181.47,80.38 181.02,80.47 167.02,80.47 166.48,80.38 165.94,80.3 165.41,80.12 164.87,79.94 164.42,79.67 
			164.06,79.32 163.61,78.96 163.34,78.52 163.08,78.08 162.81,77.55 162.63,77.1 		"/>
	</g>
	<polygon class="st1" points="622.94,406.77 622.74,406.24 622.55,405.71 622.25,405.27 621.86,404.74 621.46,404.38 620.97,403.94 
		620.48,403.68 619.89,403.41 619.3,403.15 618.71,402.97 618.12,402.88 617.53,402.88 546.4,402.88 546.4,397.85 533.8,397.85 
		533.31,397.94 532.82,398.03 532.43,398.2 532.03,398.47 531.64,398.73 531.44,399.09 531.15,399.53 531.05,399.97 531.05,400.41 
		531.05,435.46 531.05,435.81 531.15,436.25 531.44,436.7 531.64,437.05 532.03,437.31 532.43,437.58 532.82,437.76 533.31,437.84 
		533.8,437.93 546.4,437.93 546.4,432.9 617.53,432.9 618.12,432.9 618.71,432.81 619.3,432.64 619.89,432.46 620.48,432.11 
		620.97,431.84 621.46,431.49 621.86,431.05 622.25,430.6 622.55,430.07 622.74,429.55 622.94,429.02 623.04,428.49 623.04,427.87 
		623.04,407.92 623.04,407.3 	"/>
	<g>
		<polygon class="st2" points="617.55,417.36 617.55,418.43 617.46,418.96 617.28,419.49 617.01,419.93 616.75,420.38 
			616.48,420.82 616.03,421.18 615.67,421.53 615.22,421.8 614.68,421.97 614.15,422.15 613.61,422.24 613.07,422.33 599.07,422.33 
			598.62,422.24 598.09,422.15 597.55,421.97 597.01,421.8 596.56,421.53 596.2,421.18 595.75,420.82 595.49,420.38 595.22,419.93 
			594.95,419.49 594.77,418.96 594.68,418.43 594.68,417.36 594.77,416.83 594.95,416.38 595.22,415.85 595.49,415.41 
			595.75,414.97 596.2,414.61 596.56,414.26 597.01,413.99 597.55,413.81 598.09,413.63 598.62,413.55 599.07,413.46 613.07,413.46 
			613.61,413.55 614.15,413.63 614.68,413.81 615.22,413.99 615.67,414.26 616.03,414.61 616.48,414.97 616.75,415.41 
			617.01,415.85 617.28,416.38 617.46,416.83 		"/>
	</g>
	<g>
		<polygon class="st2" points="577.55,417.36 577.55,418.43 577.46,418.96 577.28,419.49 577.01,419.93 576.75,420.38 
			576.48,420.82 576.03,421.18 575.67,421.53 575.22,421.8 574.68,421.97 574.15,422.15 573.61,422.24 573.07,422.33 559.07,422.33 
			558.62,422.24 558.09,422.15 557.55,421.97 557.01,421.8 556.56,421.53 556.2,421.18 555.75,420.82 555.49,420.38 555.22,419.93 
			554.95,419.49 554.77,418.96 554.68,418.43 554.68,417.36 554.77,416.83 554.95,416.38 555.22,415.85 555.49,415.41 
			555.75,414.97 556.2,414.61 556.56,414.26 557.01,413.99 557.55,413.81 558.09,413.63 558.62,413.55 559.07,413.46 573.07,413.46 
			573.61,413.55 574.15,413.63 574.68,413.81 575.22,413.99 575.67,414.26 576.03,414.61 576.48,414.97 576.75,415.41 
			577.01,415.85 577.28,416.38 577.46,416.83 		"/>
	</g>
	<polygon class="st1" points="429.15,429.02 429.35,429.55 429.54,430.07 429.84,430.52 430.23,431.05 430.62,431.4 431.12,431.84 
		431.61,432.11 432.2,432.37 432.79,432.64 433.38,432.81 433.97,432.9 434.56,432.9 505.69,432.9 505.69,437.93 518.28,437.93 
		518.78,437.84 519.27,437.76 519.66,437.58 520.05,437.31 520.45,437.05 520.64,436.7 520.94,436.25 521.04,435.81 521.04,435.37 
		521.04,400.32 521.04,399.97 520.94,399.53 520.64,399.09 520.45,398.73 520.05,398.47 519.66,398.2 519.27,398.03 518.78,397.94 
		518.28,397.85 505.69,397.85 505.69,402.88 434.56,402.88 433.97,402.88 433.38,402.97 432.79,403.15 432.2,403.32 431.61,403.68 
		431.12,403.94 430.62,404.3 430.23,404.74 429.84,405.18 429.54,405.71 429.35,406.24 429.15,406.77 429.05,407.3 429.05,407.92 
		429.05,427.87 429.05,428.49 	"/>
	<g>
		<polygon class="st2" points="434.54,418.42 434.54,417.35 434.63,416.82 434.81,416.29 435.08,415.85 435.34,415.4 435.61,414.96 
			436.06,414.6 436.42,414.25 436.87,413.98 437.41,413.81 437.94,413.63 438.48,413.54 439.02,413.45 453.02,413.45 453.47,413.54 
			454,413.63 454.54,413.81 455.08,413.98 455.53,414.25 455.89,414.6 456.34,414.96 456.6,415.4 456.87,415.85 457.14,416.29 
			457.32,416.82 457.41,417.35 457.41,418.42 457.32,418.95 457.14,419.4 456.87,419.93 456.6,420.37 456.34,420.81 455.89,421.17 
			455.53,421.52 455.08,421.79 454.54,421.97 454,422.15 453.47,422.23 453.02,422.32 439.02,422.32 438.48,422.23 437.94,422.15 
			437.41,421.97 436.87,421.79 436.42,421.52 436.06,421.17 435.61,420.81 435.34,420.37 435.08,419.93 434.81,419.4 434.63,418.95 
					"/>
	</g>
	<g>
		<polygon class="st2" points="474.54,418.42 474.54,417.35 474.63,416.82 474.81,416.29 475.08,415.85 475.34,415.4 475.61,414.96 
			476.06,414.6 476.42,414.25 476.87,413.98 477.41,413.81 477.94,413.63 478.48,413.54 479.02,413.45 493.02,413.45 493.47,413.54 
			494,413.63 494.54,413.81 495.08,413.98 495.53,414.25 495.89,414.6 496.34,414.96 496.6,415.4 496.87,415.85 497.14,416.29 
			497.32,416.82 497.41,417.35 497.41,418.42 497.32,418.95 497.14,419.4 496.87,419.93 496.6,420.37 496.34,420.81 495.89,421.17 
			495.53,421.52 495.08,421.79 494.54,421.97 494,422.15 493.47,422.23 493.02,422.32 479.02,422.32 478.48,422.23 477.94,422.15 
			477.41,421.97 476.87,421.79 476.42,421.52 476.06,421.17 475.61,420.81 475.34,420.37 475.08,419.93 474.81,419.4 474.63,418.95 
					"/>
	</g>
	<polygon class="st1" points="622.94,64.92 622.74,64.39 622.55,63.86 622.25,63.42 621.86,62.89 621.46,62.53 620.97,62.09 
		620.48,61.83 619.89,61.56 619.3,61.3 618.71,61.12 618.12,61.03 617.53,61.03 546.4,61.03 546.4,56 533.8,56 533.31,56.09 
		532.82,56.18 532.43,56.35 532.03,56.62 531.64,56.88 531.44,57.24 531.15,57.68 531.05,58.12 531.05,58.56 531.05,93.61 
		531.05,93.96 531.15,94.4 531.44,94.85 531.64,95.2 532.03,95.46 532.43,95.73 532.82,95.91 533.31,95.99 533.8,96.08 546.4,96.08 
		546.4,91.05 617.53,91.05 618.12,91.05 618.71,90.96 619.3,90.78 619.89,90.61 620.48,90.26 620.97,89.99 621.46,89.64 
		621.86,89.2 622.25,88.75 622.55,88.22 622.74,87.69 622.94,87.17 623.04,86.64 623.04,86.02 623.04,66.06 623.04,65.45 	"/>
	<g>
		<polygon class="st2" points="617.55,75.51 617.55,76.58 617.46,77.11 617.28,77.64 617.01,78.08 616.75,78.53 616.48,78.97 
			616.03,79.33 615.67,79.68 615.22,79.95 614.68,80.12 614.15,80.3 613.61,80.39 613.07,80.48 599.07,80.48 598.62,80.39 
			598.09,80.3 597.55,80.12 597.01,79.95 596.56,79.68 596.2,79.33 595.75,78.97 595.49,78.53 595.22,78.08 594.95,77.64 
			594.77,77.11 594.68,76.58 594.68,75.51 594.77,74.98 594.95,74.53 595.22,74 595.49,73.56 595.75,73.12 596.2,72.76 
			596.56,72.41 597.01,72.14 597.55,71.96 598.09,71.78 598.62,71.7 599.07,71.61 613.07,71.61 613.61,71.7 614.15,71.78 
			614.68,71.96 615.22,72.14 615.67,72.41 616.03,72.76 616.48,73.12 616.75,73.56 617.01,74 617.28,74.53 617.46,74.98 		"/>
	</g>
	<g>
		<polygon class="st2" points="577.55,75.51 577.55,76.58 577.46,77.11 577.28,77.64 577.01,78.08 576.75,78.53 576.48,78.97 
			576.03,79.33 575.67,79.68 575.22,79.95 574.68,80.12 574.15,80.3 573.61,80.39 573.07,80.48 559.07,80.48 558.62,80.39 
			558.09,80.3 557.55,80.12 557.01,79.95 556.56,79.68 556.2,79.33 555.75,78.97 555.49,78.53 555.22,78.08 554.95,77.64 
			554.77,77.11 554.68,76.58 554.68,75.51 554.77,74.98 554.95,74.53 555.22,74 555.49,73.56 555.75,73.12 556.2,72.76 
			556.56,72.41 557.01,72.14 557.55,71.96 558.09,71.78 558.62,71.7 559.07,71.61 573.07,71.61 573.61,71.7 574.15,71.78 
			574.68,71.96 575.22,72.14 575.67,72.41 576.03,72.76 576.48,73.12 576.75,73.56 577.01,74 577.28,74.53 577.46,74.98 		"/>
	</g>
	<polygon class="st1" points="429.15,87.16 429.35,87.69 429.54,88.22 429.84,88.67 430.23,89.2 430.62,89.55 431.12,89.99 
		431.61,90.25 432.2,90.52 432.79,90.78 433.38,90.96 433.97,91.05 434.56,91.05 505.69,91.05 505.69,96.08 518.28,96.08 
		518.78,95.99 519.27,95.91 519.66,95.73 520.05,95.46 520.45,95.2 520.64,94.85 520.94,94.4 521.04,93.96 521.04,93.52 
		521.04,58.47 521.04,58.12 520.94,57.68 520.64,57.24 520.45,56.88 520.05,56.62 519.66,56.35 519.27,56.18 518.78,56.09 
		518.28,56 505.69,56 505.69,61.03 434.56,61.03 433.97,61.03 433.38,61.12 432.79,61.3 432.2,61.47 431.61,61.83 431.12,62.09 
		430.62,62.44 430.23,62.89 429.84,63.33 429.54,63.86 429.35,64.39 429.15,64.92 429.05,65.45 429.05,66.06 429.05,86.02 
		429.05,86.64 	"/>
	<g>
		<polygon class="st2" points="434.54,76.57 434.54,75.5 434.63,74.97 434.81,74.44 435.08,74 435.34,73.55 435.61,73.11 
			436.06,72.75 436.42,72.4 436.87,72.13 437.41,71.96 437.94,71.78 438.48,71.69 439.02,71.6 453.02,71.6 453.47,71.69 454,71.78 
			454.54,71.96 455.08,72.13 455.53,72.4 455.89,72.75 456.34,73.11 456.6,73.55 456.87,74 457.14,74.44 457.32,74.97 457.41,75.5 
			457.41,76.57 457.32,77.1 457.14,77.55 456.87,78.08 456.6,78.52 456.34,78.96 455.89,79.32 455.53,79.67 455.08,79.94 
			454.54,80.12 454,80.3 453.47,80.38 453.02,80.47 439.02,80.47 438.48,80.38 437.94,80.3 437.41,80.12 436.87,79.94 436.42,79.67 
			436.06,79.32 435.61,78.96 435.34,78.52 435.08,78.08 434.81,77.55 434.63,77.1 		"/>
	</g>
	<g>
		<polygon class="st2" points="474.54,76.57 474.54,75.5 474.63,74.97 474.81,74.44 475.08,74 475.34,73.55 475.61,73.11 
			476.06,72.75 476.42,72.4 476.87,72.13 477.41,71.96 477.94,71.78 478.48,71.69 479.02,71.6 493.02,71.6 493.47,71.69 494,71.78 
			494.54,71.96 495.08,72.13 495.53,72.4 495.89,72.75 496.34,73.11 496.6,73.55 496.87,74 497.14,74.44 497.32,74.97 497.41,75.5 
			497.41,76.57 497.32,77.1 497.14,77.55 496.87,78.08 496.6,78.52 496.34,78.96 495.89,79.32 495.53,79.67 495.08,79.94 
			494.54,80.12 494,80.3 493.47,80.38 493.02,80.47 479.02,80.47 478.48,80.38 477.94,80.3 477.41,80.12 476.87,79.94 476.42,79.67 
			476.06,79.32 475.61,78.96 475.34,78.52 475.08,78.08 474.81,77.55 474.63,77.1 		"/>
	</g>
</g>
<text transform="matrix(0.8473 0 0 1 4.9999 10.8847)"><tspan x="0" y="0" class="st3 st4">@flameAutomation, Updated: April/2024</tspan><tspan x="0" y="9.92" class="st3 st4">Design for </tspan><tspan x="40.73" y="9.92" class="st5 st3 st4">3.5mm</tspan><tspan x="67.15" y="9.92" class="st3 st4"> Acrylic Sheets</tspan></text>
<path class="st6" d="M388.7,260.76c1.66-3.02,2.54-6.42,2.38-9.9c-0.29-6.11-2.46-11.71-5.6-17.46c-0.56,5.72-0.29,11.42-6.44,14.61
	c2.08-6.75,2.76-13.48,0.26-20.21c-2.54-6.83-7.65-11.56-14.36-15.11c1.98,9.61-3.39,16.8-8.64,23.98c-3.61,4.93-6.32,10.16-7,16.17
	c-0.35,3.08,0.28,6.32,1.61,9.25c-0.04,0.05-0.08,0.09-0.12,0.13c-0.84,0.89-1.92,1.27-3.1,1.5c0.6,2.61,1.58,5,2.96,7.21
	c0.07-0.01,0.1-0.01,0.12-0.03c0.1-0.07,0.2-0.14,0.3-0.21c1.22-0.87,2.55-1.08,3.97-0.58c1.19,0.42,2.14,1.18,2.92,2.17
	c1.27,1.62,1.35,3.33,0.4,5.12c-0.14,0.27-0.31,0.52-0.48,0.82c2.22,1.43,4.61,2.42,7.19,3.01c0.03-0.19,0.06-0.35,0.09-0.51
	c0.2-1.13,0.7-2.09,1.64-2.75c1.72-1.19,3.6-1.33,5.55-0.71c0.98,0.31,1.72,0.97,2.17,1.9c0.32,0.65,0.52,1.35,0.78,2.04
	c1.74-0.23,5.6-1.84,7.1-2.98c-0.1-0.15-0.19-0.28-0.27-0.4c-0.85-1.22-1.04-2.54-0.56-3.96c0.39-1.16,1.1-2.1,2.04-2.86
	c1.74-1.41,3.54-1.52,5.46-0.35c0.18,0.11,0.35,0.21,0.55,0.34c1.42-2.26,2.4-4.66,2.98-7.25
	C390.47,263.47,389.28,262.37,388.7,260.76z M370.8,270.62c-3.03,0.17-5.76-0.7-8.11-2.62c-2.05-1.67-3.38-3.72-4.04-6.1
	c-0.43-2.14,0.14-3.98,0.64-5.07c0.82-1.39,1.79-2.73,2.56-4.15c1.85-3.37,3.75-6.72,5.33-10.19c0.69-1.52,0.63-3.33,0.95-5.25
	c5.69,7.5,7.01,15.39,3.13,24.16c5.49-0.7,9.3-3.02,11.58-7.5c-0.22,6.23-2.71,11.3-7.3,15.44
	C374.09,270.08,372.48,270.53,370.8,270.62z"/>
</svg>
